<svg width="83" height="83" viewBox="0 0 83 83" fill="none" xmlns="http://www.w3.org/2000/svg">
<g clip-path="url(#clip0_18_430)" filter="url(#filter0_d_18_430)">
<path d="M12.4619 57.1409H23.5685V49.5013H12.4619V57.1409ZM14.665 51.7044H21.3655V54.9378H14.665V51.7044Z" fill="#F3FAFF"/>
<path d="M40.5142 57.1409H51.6209V49.5013H40.5142V57.1409ZM42.7172 51.7044H49.4177V54.9378H42.7172V51.7044Z" fill="#F3FAFF"/>
<path d="M25.6992 50.721H38.3837V52.9241H25.6992V50.721Z" fill="#F3FAFF"/>
<path d="M25.6992 54.572H38.3837V56.7751H25.6992V54.572Z" fill="#F3FAFF"/>
<path d="M57.0085 10.1831H38.7788V5.17636H34.5132L27.6505 0H13.0803V2.21806H4.04517V8.3867H13.0803V13.9678H4.04517V20.1365H13.0803V22.3545H27.6505L34.5132 17.1783H38.7788V12.3862H57.0085C67.8951 12.3862 76.7521 21.243 76.7521 32.1296V34.2926C76.7521 44.8592 68.4081 53.5129 57.963 54.0127V50.8332L54.7319 46.7039H59.3116V39.8254H53.573L53.5737 29.5022L51.8082 26.6845H12.2685L10.503 29.5022L10.5027 39.8254H4.76499V46.7039H9.35093L6.11988 50.8332V58.649H4.1916V66.5316H6.7905V75H16.9215V66.5316H41.5735V64.3286H6.39468V60.8521H57.6883V64.3281L43.7766 64.3287V66.5318H47.8322V75.0001H57.9631V66.5316H59.8914V58.649H57.963V56.2171C69.6232 55.7155 78.9551 46.074 78.9551 34.2926V32.1296C78.9551 20.0282 69.1099 10.1831 57.0085 10.1831V10.1831ZM6.24825 6.18361V4.42115H13.0803V6.18361H6.24825ZM6.24825 17.9334V16.1709H13.0803V17.9334H6.24825ZM36.5757 14.9751H33.7755L26.9127 20.1513C14.7253 20.1513 15.2832 20.1595 15.2832 20.1363C15.2832 16.8089 15.2832 5.55603 15.2832 2.20294H26.9127L33.7755 7.3793H36.5757V14.9751ZM14.7184 72.7969H8.99359V66.5316H14.7184V72.7969ZM53.5737 42.0285H57.1085V44.5008H53.5737V42.0285ZM12.7061 30.1354L13.4879 28.8876H50.5887L51.3705 30.1354V31.3278H12.7061V30.1354ZM6.96807 42.0285H10.5027V44.5008H6.96807V42.0285ZM55.7601 72.7969H50.0353V66.5316H55.7601V72.7969ZM8.32311 58.649V51.5927L12.1484 46.704H17.5584V44.501H12.7061L12.7058 33.5315H51.3699V44.501H19.7615V46.704H51.9348L55.7599 51.5927V58.649H8.32311Z" fill="#F3FAFF"/>
<path d="M27.8309 5.77518L25.8568 4.7973L22.1313 12.3183H25.5169L23.4951 16.3487L25.4642 17.3367L29.0869 10.1153H25.6811L27.8309 5.77518Z" fill="#F3FAFF"/>
<path d="M39.6403 40.1176H37.4372V37.9145H39.6403V40.1176ZM33.0311 40.1176H30.828V37.9145H33.0311V40.1176ZM26.4218 40.1176H24.2188V37.9145H26.4218V40.1176Z" fill="#F3FAFF"/>
<path d="M30.7864 10.0757H32.9895V12.2788H30.7864V10.0757Z" fill="#F3FAFF"/>
<path d="M18.3022 10.0757H20.5053V12.2788H18.3022V10.0757Z" fill="#F3FAFF"/>
</g>
<defs>
<filter id="filter0_d_18_430" x="0" y="0" width="83" height="83" filterUnits="userSpaceOnUse" color-interpolation-filters="sRGB">
<feFlood flood-opacity="0" result="BackgroundImageFix"/>
<feColorMatrix in="SourceAlpha" type="matrix" values="0 0 0 0 0 0 0 0 0 0 0 0 0 0 0 0 0 0 127 0" result="hardAlpha"/>
<feOffset dy="4"/>
<feGaussianBlur stdDeviation="2"/>
<feComposite in2="hardAlpha" operator="out"/>
<feColorMatrix type="matrix" values="0 0 0 0 0 0 0 0 0 0 0 0 0 0 0 0 0 0 0.25 0"/>
<feBlend mode="normal" in2="BackgroundImageFix" result="effect1_dropShadow_18_430"/>
<feBlend mode="normal" in="SourceGraphic" in2="effect1_dropShadow_18_430" result="shape"/>
</filter>
<clipPath id="clip0_18_430">
<rect width="75" height="75" fill="white" transform="translate(4)"/>
</clipPath>
</defs>
</svg>