<svg width="158" height="158" viewBox="0 0 158 158" fill="none" xmlns="http://www.w3.org/2000/svg">
<g clip-path="url(#clip0_20_704)" filter="url(#filter0_d_20_704)">
<path d="M20.9238 114.282H43.1371V99.0027H20.9238V114.282ZM25.33 103.409H38.7309V109.876H25.33V103.409Z" fill="#F3FAFF"/>
<path d="M77.0284 114.282H99.242V99.0027H77.0284V114.282ZM81.4346 103.409H94.8355V109.876H81.4346V103.409Z" fill="#F3FAFF"/>
<path d="M47.3981 101.442H72.767V105.848H47.3981V101.442Z" fill="#F3FAFF"/>
<path d="M47.3981 109.144H72.767V113.55H47.3981V109.144Z" fill="#F3FAFF"/>
<path d="M110.017 20.3662H73.5575V10.3527H65.0263L51.3008 0H22.1605V4.43613H4.09021V16.7734H22.1605V27.9357H4.09021V40.2729H22.1605V44.7091H51.3008L65.0263 34.3566H73.5575V24.7723H110.017C131.79 24.7723 149.504 42.486 149.504 64.2592V68.5852C149.504 89.7184 132.816 107.026 111.926 108.025V101.666L105.464 93.4078H114.623V79.6509H103.146L103.147 59.0044L99.6162 53.369H20.537L17.0059 59.0044L17.0053 79.6509H5.52985V93.4078H14.7017L8.23964 101.666V117.298H4.38307V133.063H9.58088V150H29.8428V133.063H79.1469V128.657H8.78924V121.704H111.377V128.656L83.5531 128.657V133.064H91.6642V150H111.926V133.063H115.783V117.298H111.926V112.434C135.246 111.431 153.91 92.1479 153.91 68.5852V64.2592C153.91 40.0565 134.22 20.3662 110.017 20.3662V20.3662ZM8.49638 12.3672V8.84229H22.1605V12.3672H8.49638ZM8.49638 35.8668V32.3418H22.1605V35.8668H8.49638ZM69.1514 29.9502H63.5508L49.8253 40.3026C25.4504 40.3026 26.5664 40.3191 26.5664 40.2727C26.5664 33.6179 26.5664 11.1121 26.5664 4.40587H49.8253L63.5508 14.7586H69.1514V29.9502ZM25.4366 145.594H13.987V133.063H25.4366V145.594ZM103.147 84.057H110.217V89.0016H103.147V84.057ZM21.412 60.2708L22.9756 57.7751H97.1772L98.7408 60.2708V62.6557H21.412V60.2708ZM9.93602 84.057H17.0053V89.0016H9.93602V84.057ZM107.52 145.594H96.0704V133.063H107.52V145.594ZM12.6461 117.298V103.185L20.2967 93.4081H31.1168V89.0019H21.412L21.4114 67.063H98.7397V89.0019H35.5229V93.4081H99.8694L107.52 103.185V117.298H12.6461Z" fill="#F3FAFF"/>
<path d="M51.6615 11.5504L47.7133 9.5946L40.2625 24.6367H47.0336L42.9899 32.6973L46.9281 34.6733L54.1736 20.2305H47.362L51.6615 11.5504Z" fill="#F3FAFF"/>
<path d="M75.2807 80.2351H70.8745V75.829H75.2807V80.2351ZM62.0622 80.2351H57.656V75.829H62.0622V80.2351ZM48.8437 80.2351H44.4375V75.829H48.8437V80.2351Z" fill="#F3FAFF"/>
<path d="M57.5725 20.1514H61.9787V24.5576H57.5725V20.1514Z" fill="#F3FAFF"/>
<path d="M32.6042 20.1514H37.0104V24.5576H32.6042V20.1514Z" fill="#F3FAFF"/>
</g>
<defs>
<filter id="filter0_d_20_704" x="0" y="0" width="158" height="158" filterUnits="userSpaceOnUse" color-interpolation-filters="sRGB">
<feFlood flood-opacity="0" result="BackgroundImageFix"/>
<feColorMatrix in="SourceAlpha" type="matrix" values="0 0 0 0 0 0 0 0 0 0 0 0 0 0 0 0 0 0 127 0" result="hardAlpha"/>
<feOffset dy="4"/>
<feGaussianBlur stdDeviation="2"/>
<feComposite in2="hardAlpha" operator="out"/>
<feColorMatrix type="matrix" values="0 0 0 0 0 0 0 0 0 0 0 0 0 0 0 0 0 0 0.25 0"/>
<feBlend mode="normal" in2="BackgroundImageFix" result="effect1_dropShadow_20_704"/>
<feBlend mode="normal" in="SourceGraphic" in2="effect1_dropShadow_20_704" result="shape"/>
</filter>
<clipPath id="clip0_20_704">
<rect width="150" height="150" fill="white" transform="translate(4)"/>
</clipPath>
</defs>
</svg>
